<svg id="Layer_1" data-name="Layer 1" xmlns="http://www.w3.org/2000/svg" viewBox="0 0 1032 117"><defs><style>.cls-1{fill:blue;}.cls-2{fill:none;stroke:blue;stroke-miterlimit:10;stroke-width:20px;}</style></defs><title>monsterweb_logo</title><g id="Layer_7" data-name="Layer 7"><path class="cls-1" d="M197.16,35.58q9.36,10,9.36,28.4V115.5h-22.4v-49q0-10.24-5.2-15.76T164.6,45.26q-9.44,0-15,5.92T144,68.46v47H121.6v-49q0-10.24-5.2-15.76T102,45.26q-9.44,0-15,5.92T81.4,68.46v47H58.84V26.86H81.4v16.8A27.46,27.46,0,0,1,92.52,30.3a32.83,32.83,0,0,1,17.68-4.72,33.58,33.58,0,0,1,18.64,5.12,31.31,31.31,0,0,1,11.92,14.72,33.47,33.47,0,0,1,30.88-19.84Q187.8,25.58,197.16,35.58Z"/><path class="cls-1" d="M391.11,35.67q9.12,10.08,9.12,28.32v51.52h-22.4v-49q0-10.56-5.44-16.4t-14.88-5.84q-9.6,0-15.36,6.24t-5.76,17.92v47H313.83V26.87h22.56V44.63a28.23,28.23,0,0,1,11.6-14,34.47,34.47,0,0,1,18.64-5Q382,25.59,391.11,35.67Z"/><path class="cls-1" d="M467.63,35.08q9.66,8.08,12,21.55H458.76a17.42,17.42,0,0,0-5.7-10.14q-4.44-3.8-11.57-3.8-5.7,0-8.87,2.69a9.07,9.07,0,0,0-3.17,7.29A7.4,7.4,0,0,0,432,58.53,18.2,18.2,0,0,0,438.32,62q3.8,1.27,10.93,3a112.73,112.73,0,0,1,16.24,4.67,26.89,26.89,0,0,1,10.78,7.76q4.52,5.31,4.52,14.34A22.15,22.15,0,0,1,472,110q-8.79,7-23.69,7-17.11,0-27.41-7.68T408.37,87.37h21.39a14.43,14.43,0,0,0,5.7,10.22q4.91,3.73,12.83,3.72,5.7,0,8.72-2.77a9.35,9.35,0,0,0,3-7.21,8,8,0,0,0-2.61-6.18,17.7,17.7,0,0,0-6.5-3.64q-3.88-1.27-11-3A123.84,123.84,0,0,1,424,74a25.37,25.37,0,0,1-10.46-7.37q-4.36-5.07-4.36-13.94a22.82,22.82,0,0,1,8.71-18.54Q426.59,27,442,27,458,27,467.63,35.08Z"/><path class="cls-1" d="M543.17,97.65V117H531.33q-14.88,0-22.8-7.2t-7.92-24V47.41H488.29v-19h12.32v-22h22.56V28.37H543v19H523.17V86.13q0,6.4,2.56,9t8.64,2.56Z"/><path class="cls-1" d="M636,75.78H572.41q.47,11.58,6.26,17.06a20.13,20.13,0,0,0,14.4,5.48q7.67,0,12.76-3.76a16.64,16.64,0,0,0,6.49-10.17h23.32a37.33,37.33,0,0,1-7.36,16.28,38.44,38.44,0,0,1-14.48,11.27,49.59,49.59,0,0,1-42.18-1.33,37.94,37.94,0,0,1-15.34-15.42q-5.48-10-5.48-23.63t5.48-23.71a37.34,37.34,0,0,1,15.34-15.42,46.72,46.72,0,0,1,22.54-5.32q12.83,0,22.46,5.32a37.54,37.54,0,0,1,14.87,14.63,42.49,42.49,0,0,1,5.24,21.21A41.8,41.8,0,0,1,636,75.78ZM608.63,49a21.29,21.29,0,0,0-14.2-4.88A21.8,21.8,0,0,0,580,49q-5.86,4.88-6.46,14.36H614Q614.42,53.87,608.63,49Z"/><path class="cls-1" d="M681.51,31a34.86,34.86,0,0,1,18.24-4.88V50.25h-6.56q-24.8,0-24.8,23V116H645.83V27.37h22.56v17A37.1,37.1,0,0,1,681.51,31Z"/><path class="cls-1" d="M842,28.37l-23.45,87.2H794L775.26,52.14l-19.2,63.44H731.5l-23.3-87.2h22.2l14.17,67.37,19.36-67.37h23.45L806.9,95.74l14.32-67.37Z"/><circle class="cls-2" cx="260" cy="72" r="35"/><g id="Layer_2-2" data-name="Layer 2-2"><g id="Layer_7-2" data-name="Layer 7-2"><path class="cls-1" d="M929.14,75.67H865.6q.47,11.58,6.26,17.06a20.13,20.13,0,0,0,14.4,5.48q7.67,0,12.76-3.76a16.64,16.64,0,0,0,6.48-10.17h23.32a37.33,37.33,0,0,1-7.36,16.28A38.44,38.44,0,0,1,907,111.82a49.59,49.59,0,0,1-42.18-1.33,37.94,37.94,0,0,1-15.34-15.41Q844,85.06,844,71.45t5.48-23.71a37.34,37.34,0,0,1,15.33-15.42A46.72,46.72,0,0,1,887.35,27q12.83,0,22.46,5.32A37.54,37.54,0,0,1,924.68,47a42.49,42.49,0,0,1,5.24,21.21A41.8,41.8,0,0,1,929.14,75.67ZM901.82,48.88A21.29,21.29,0,0,0,887.62,44a21.8,21.8,0,0,0-14.43,4.88q-5.86,4.88-6.46,14.36h40.43Q907.61,53.76,901.82,48.88Z"/></g></g><circle class="cls-1" cx="25" cy="91" r="25"/><circle class="cls-2" cx="987" cy="72" r="35"/><rect class="cls-1" x="940" width="21" height="116"/></g></svg>